<?xml version="1.0" encoding="utf-8"?>
<!-- Generator: Adobe Illustrator 24.1.1, SVG Export Plug-In . SVG Version: 6.00 Build 0)  -->
<svg version="1.1" id="Layer_1" xmlns="http://www.w3.org/2000/svg" xmlns:xlink="http://www.w3.org/1999/xlink" x="0px" y="0px"
	 viewBox="0 0 217.93 217.93" style="enable-background:new 0 0 217.93 217.93;" xml:space="preserve">
<style type="text/css">
	.st0{fill:#37742F;}
	.st1{fill:#FFFFFF;}
	.st2{fill:#E20613;}
	.st3{fill:#FFDC00;}
</style>
<g id="XMLID_7677_">
	<g id="XMLID_7701_">
		<g id="XMLID_7749_">
			<path id="XMLID_7769_" class="st0" d="M217.93,108.97c0,60.18-48.79,108.97-108.96,108.97C48.79,217.93,0,169.14,0,108.97
				C0,48.78,48.79,0,108.97,0C169.14,0,217.93,48.78,217.93,108.97z"/>
			<path id="XMLID_7768_" class="st1" d="M212.72,108.97c0,57.3-46.45,103.76-103.75,103.76C51.66,212.72,5.2,166.27,5.2,108.97
				C5.2,51.66,51.66,5.2,108.97,5.2C166.27,5.2,212.72,51.66,212.72,108.97z"/>
			<g id="XMLID_7764_">
				<g id="XMLID_7765_">
					<g id="XMLID_7766_">
						<path id="XMLID_7767_" class="st2" d="M108.97,181.6c40.11,0,72.64-32.52,72.64-72.64c0-40.12-32.53-72.65-72.64-72.65
							c-40.13,0-72.65,32.53-72.65,72.65C36.32,149.08,68.84,181.6,108.97,181.6z"/>
					</g>
				</g>
			</g>
			<g id="XMLID_7750_">
				<g id="XMLID_7751_">
					<g id="XMLID_7761_">
						<path id="XMLID_7762_" class="st2" d="M26.06,126.36h7.88l-6.36,4.76l2.47,7.55l-6.33-4.65l-6.32,4.65l2.5-7.55l-6.41-4.76
							h7.86l2.38-7.36L26.06,126.36z"/>
					</g>
					<g id="XMLID_7758_">
						<path id="XMLID_7759_" class="st2" d="M41.01,157.37h7.88l-6.36,4.76l2.46,7.55l-6.32-4.65l-6.32,4.65l2.49-7.55l-6.4-4.76
							h7.85l2.38-7.35L41.01,157.37z"/>
					</g>
					<g id="XMLID_7755_">
						<path id="XMLID_7756_" class="st2" d="M194.6,119l2.37,7.36h7.86l-6.41,4.76l2.49,7.55l-6.32-4.65l-6.32,4.65l2.46-7.55
							l-6.35-4.76h7.88L194.6,119z"/>
					</g>
					<g id="XMLID_7752_">
						<path id="XMLID_7753_" class="st2" d="M179.65,150.01l2.38,7.35h7.86l-6.4,4.76l2.48,7.55l-6.32-4.65l-6.32,4.65l2.47-7.55
							l-6.36-4.76h7.88L179.65,150.01z"/>
					</g>
				</g>
			</g>
		</g>
		<g id="XMLID_7702_">
			<path id="XMLID_7748_" class="st3" d="M150.93,153.63c0.24-0.8-0.8-2.12-0.8-2.82c-0.3-0.76-0.02-1.86-0.64-2.55
				c0-1.27-0.25-2.79,0-4.03c0.77-0.37-0.25-0.98,0.56-1.42c0.33-0.6-0.42-0.87-0.47-1.45c0.48-0.62-0.14-0.87-0.21-1.47
				c0.44-0.53-0.1-0.97-0.12-1.45c0.14-0.23,0.33-0.62,0.6-0.55c0.13-0.46-0.1-0.71-0.37-1.04c-0.32-0.51-0.24-1.01-0.15-1.52l0,0
				c0.06-0.34,0.12-0.67,0.07-1.02c-0.6-0.46-0.6-1.17-0.72-1.82c0-0.35,0.51-0.72,0.17-0.95c-0.6-0.13,0.04-0.94-0.55-1.1
				c0.23-0.66,0.1-1.44-0.33-1.97l0.21-1.11c-0.24-0.41-0.25-1.1-0.88-1.17c-0.53-0.33-0.11-1.04-0.27-1.43
				c0.11-0.71-0.6-0.64-0.84-1.1c0.81-0.72-0.42-1.26-0.24-2.09h-0.07l0.07-0.01c0.01-0.02,0.01-0.05,0.02-0.07
				c-0.04-0.35,0.6-0.53,0.07-0.83c-0.27-0.26-0.21-0.69-0.07-1.04c-0.81,0.19-0.48-0.8-1.03-0.98c0.27-0.39,0.1-0.69,0-1.11
				c0.07-0.48-0.01-0.41,0.62-0.53l0.92,0.69c0.51-0.46-0.23-1.27-0.55-1.61l-0.5-0.55c-0.3-0.34-0.14-0.85-0.1-1.22
				c-0.76-0.35-0.83-1.17-0.83-1.93c-0.83-0.65,0.08-1.18-0.61-2.16c-0.18-0.79,0.63-1.44-0.12-1.9c0.02,0.05-0.31,0.13-0.33,0.15
				c0.04,0.66-0.29,0.53-0.24,0.88l-0.07,0.41c-0.07,0.02-0.11,0.28-0.11,0.34c-0.33,0.16-0.23-0.41-0.58-0.57
				c0.25-0.33-0.31-0.66-0.29-0.98c-0.02,0.14-0.35-0.15-0.42-0.19v-0.05c-0.33,0.21,0.02,0.07-0.21,0.3
				c-0.04,0.03-0.07,0.2-0.11,0.18c0.16,0.41-0.27,0.35-0.46,0.56l-0.23,0.36c-0.42,0.41-0.23-0.15-0.72-0.08
				c-0.3-0.19-0.84-0.21-0.83-0.72c-0.12-0.39-0.6-0.53-0.98-0.39l-0.05,0.55c-0.07,0.35,0.48,0.35,0.21,0.74
				c0.25,0.5,0,1.06-0.04,1.59c0.11,0.23,0.46,0.43,0.44,0.78c-0.41,0.41-0.07,1.18-0.6,1.54c-0.16,0.14-0.27-0.07-0.39,0.16
				c-0.76-0.04-1.43,0.55-2.2,0.4l0.04,0.59c-0.98,0.57,0.1,1.2-0.48,1.93l0.65,0.67c0.11,0.32-0.18,0.49-0.17,0.78
				c-0.52,0.85-0.36,0.83-0.27,1.52c-0.16,0.37,0.18,0.4-0.06,0.81c-0.8,0.57-0.57,0.8-1.09,0.99l0.07,0.01h-0.08
				c-0.05,0.16-0.4,0.27-0.74,0.38c-1.01,0.22-0.41,0.06-1.03,0.28c-0.33,0.05-0.32,0.22-0.52-0.17c-1.16-0.34-0.83,0.14-1.24-0.5
				h-0.01l0.01-0.01v0c0.33-0.48-0.35-0.67-0.28-1.1c0.72-1.11-0.76-1.45-0.61-2.53l-0.41-0.3c-0.41-0.36-0.4-0.34-0.69-0.98
				l-0.35,0.29c-0.07,0.64,0.29-0.05,0.08,1.04c-0.08,0.8,0.89,1.26,0.54,1.97c0.24,0.4,0.19,0.96,0.41,1.28
				c0.05,0.18,0.01,0.17,0.01,0.33l0.02,0.01h-0.03c-0.28,0.15-0.04,0.09-0.3,0.21c-0.07,0.11-0.3,0.07-0.5,0.03
				c-0.11-0.17-0.11-0.07-0.14-0.24c-0.12-0.21,0.05-0.48,0.16-0.64h-0.16c-0.32-0.25-1-0.34-0.9-0.92
				c-0.58-0.55,0.07-1.29-0.37-1.84c0.02-1.01-0.44-1.68-0.5-2.57c-0.21-0.37,0.12-0.76,0.27-0.95c-0.04-0.07-0.23,0.03-0.16-0.16
				c-0.85-0.25-0.67-1.2-0.78-1.93c0.04-0.37-0.26-0.37-0.48-0.39c-0.3-0.05-0.65-0.34-0.67-0.71c1.11-1.01-1.15-1.13-0.71-2.21
				c0.11-0.46,0.69-0.3,0.75-0.73l-0.48-0.16c-0.21-0.23-0.29-0.41-0.27-0.56h-0.04c0.06-0.54,1.33-0.68,1.58-1.38
				c0.12-0.25,0.07-0.58-0.16-0.76c-0.05-0.97-0.03-2.16,0.83-2.67c0.64,0.89,0.98-0.53,1.6,0.11c0.07-0.46-0.04-0.78,0.28-1.15
				c-0.1-0.21-0.37-0.34-0.28-0.62c0.16-0.21,0.28-0.42,0.55-0.49c1.16,0.24,2.23,1.56,3.59,0.83c0.76-0.42-0.36-1.11,0.33-1.61
				l0.04,0.07c0.04-0.39-0.02-0.95,0.24-1.34c1.21-0.46,0.71,1.08,1.37,1.5c0.16-0.04,0.32-0.06,0.44-0.23
				c0.19-0.42-0.32-0.53-0.32-0.87c0.11-0.34,0.48-0.6,0.87-0.55c0.3,0.5,0.72-0.05,1.1,0.04c0.48,0.21,0.46,0.78,0.44,1.17
				c0.23,0.18,0.33,0.46,0.46,0.76c0.21-0.14,0.24-0.37,0.49-0.44c-0.13-0.81-0.19-1.52-0.05-2.25c0.19-0.35-0.02-1.16,0.67-0.83
				l0.05-0.46c0.2-0.18-0.19-0.44,0.11-0.6c0.13,0.04,0.41-0.09,0.44,0.11c0.94,0.09,2,0.11,2.76-0.43
				c0.14-0.53,0.02-1.06-0.33-1.45c-0.02-0.07-0.04-0.15-0.05-0.23c-0.03-0.25,0.04-0.52,0.21-0.71c0.56-0.07,0.79,0.67,1.23,0.67
				v-0.99c0.3-1.06,0.21-2.46,0.92-3.36c0.18-0.23-0.1-0.25-0.21-0.39c-0.07-0.37-0.39-0.87,0.04-1.17
				c-0.14,0.07-0.18-0.09-0.27-0.16c-0.1-0.67,0.69-0.87,1.1-1.15c0.47-0.11,0.83,0.09,1.22,0.48c0.73-0.18,1.8,0.23,2.21-0.55
				c-0.04-0.74-0.87-0.96-1.37-1.31c-0.1-0.3,0.04-0.64,0.16-0.94c-0.19-0.42-0.87-0.09-1.26-0.28c-0.46-0.18-0.88-0.54-1.38-0.6
				c-0.37-0.73-0.58,0.3-1.37-0.55c-0.46-0.64-0.92-0.44-1.38-0.66l-0.75-0.28c-0.85-0.01-0.52,0.03-1.32-0.17l-0.55-0.07
				c-0.48-0.04-1.06,0.13-1.4,0.29c-0.12-0.14-0.67,0.03-0.78-0.32c-0.36-0.13-0.23,0.23-0.48,0.32c-0.25,0.02-0.3-0.2-0.55-0.22
				c-1.18-0.38-1.09-0.05-1.98-0.12c-0.42-0.05-0.78,0.28-1.04,0c-0.38-0.11-1.05,0.12-1.38,0.35c-0.66,0.21-1.09,0.55-1.74-0.14
				c-0.07-0.07-0.37-0.03-0.33-0.28c-0.21,0.07-0.37,0.25-0.63,0.19c-0.36-0.3-1.03,0.14-1.31-0.4l-0.43,0.05
				c-0.38-0.59-1.02-0.23-1.61-0.32c-0.58,0.14-1.51-0.07-2.05,0.16c-0.69,0.07-1.5,0.32-2.22,0.32c-0.36,0.14-1.06,0.32-1.49,0
				c-0.39-0.02-0.75-0.14-1.1-0.32c-0.49-0.05-0.89-0.37-1.37-0.28c-0.9,0.99-2.05-0.27-3.13,0.23c-0.85,0.05-1.63,1.52-2.44,0.44
				c-0.69,0.02-1.03-0.6-1.54-0.9c-0.11,0.26-0.37,0.14-0.55,0.19c-0.46-0.44-1.29,0.21-1.66-0.55c-0.24-0.08-0.49-0.17-0.75-0.26
				c-0.98-0.36-1.94-0.8-2.79-1.46c-0.67-0.71-1.29,0.46-1.98,0.16c-0.58-0.14-0.73-0.78-0.99-1.2c-0.09-0.37,0.02-0.81,0.28-1.06
				c0.23-1.42,0.64-2.76,0.71-4.26c-0.62-0.78-1.12-1.75-0.89-2.76c-0.04,0.04-0.07,0.14-0.16,0.11c0.35-0.45-0.23-1.19,0.27-1.65
				c0.33-0.11,0.58-0.39,0.99-0.27c0.71-0.07,0.46-1.06,1.22-0.99c-0.18-0.09-0.59,0.32-0.84-0.07c0.04-0.1,0.08-0.21,0.13-0.32
				c0.1-0.19,0.21-0.37,0.38-0.44l-0.12-0.12c-0.53,0.23-0.74-0.02-1.22,0.32c-0.27-0.12-0.6-0.41-0.55-0.76
				c-0.04-0.44-0.55-0.12-0.6-0.07c-0.09-0.14-0.33-0.18-0.43-0.37c-0.1-0.18-0.15-0.64,0.2-0.55c0.09-0.34,0.49-0.34,0.44-0.74
				h-0.09c0,0.07,0,0.14-0.07,0.18c-0.14-0.41-0.97-0.48-0.76-1.1c-0.37,0.07-0.74-0.12-1.06-0.28c-0.21-0.16,0.18-0.39-0.11-0.46
				c-0.24,0.3-0.77,0.2-1.15,0.07c-0.24,0.32,0.5,0.55,0.48,0.94c-0.07,0.16-0.23,0.46-0.48,0.43c-0.21,0.35,0.02,0.78,0.2,1.11
				c0.56,0.85-0.61,0.94-0.82,1.49c-0.26,0.03-0.41,0.23-0.6-0.07c-0.14-0.13-0.27-0.46-0.23-0.67c-0.38,0.09-0.67,0.32-1.11,0.23
				c-0.39-0.16-0.36-0.6-0.44-0.94c-0.34-0.14-0.4,0.21-0.58,0.39c-1.23,0.78-1.39-1.09-2.45-1.34c-0.6-0.55-1.29-1.04-2.1-1.38
				c0.04-0.1-0.04-0.26,0.05-0.32c0.18-0.58,0-1.18-0.48-1.54c-0.27-0.58,0-0.99,0.21-1.5c-0.14-0.21-0.41-0.3-0.6-0.55
				c-0.1-0.23,0.07-0.51,0-0.79c-0.25-0.02-0.48-0.06-0.71-0.04c-0.6,0.13-0.63-0.65-1.06-0.83c-0.41-0.21-0.39,0.39-0.39,0.67
				c0.05,0.46-0.43,0.28-0.64,0.17c-0.58-0.42-0.27,0.53-0.78,0.55c0.27,0.44,1.11,0.44,0.95,1.15c-0.13,0.28-0.41,0.44-0.72,0.46
				c-0.04,0.18,0.07,0.3,0.21,0.43c-0.05,0.23-0.12,0.44-0.32,0.6c-0.31,0.11-0.67,0.07-0.9-0.16c-0.25-0.26-0.41-0.67-0.64-0.82
				c0,0.04-0.05,0.06-0.07,0.11c-0.52,0.11-1.01-0.46-1.31-0.83c-0.18-0.34,0.32-0.46,0.16-0.71c-0.97-0.36-0.93-1.48-1.26-2.35
				c-0.23,0.02-0.13-0.14-0.31,0.02c-0.04-0.11-0.05,0.1-0.15,0.03c-0.15-0.08-0.33-0.28-0.38-0.42c-0.07-0.03-0.03-0.16-0.13-0.14
				c0-0.13-0.13-0.23-0.21-0.36c-0.13,0.04-0.07-0.2-0.18-0.22c-0.12-0.08-0.26-0.1-0.28-0.24c-0.14-0.05-0.05-0.26-0.21-0.23
				c-0.06-0.18-0.22-0.09-0.26-0.29c-0.06,0-0.1-0.2-0.16-0.2c-0.07-0.04-0.09-0.16-0.19-0.18c0-0.06-0.24-0.09-0.24-0.15
				c-0.11,0.05-0.16-0.18-0.26-0.16c0-0.04-0.14-0.22-0.26-0.29c-0.18-0.01-0.38-0.44-0.55-0.5c-0.16-0.4-0.05-0.41-0.02-0.78
				c-0.09-0.69-0.18-0.26-0.3-0.35l-0.6,1.1c-0.12,0.69-1.11,1.93-0.92,2.39c0.77,0.48,1.06-0.44,1.15-0.17
				c0.33-0.19,0.46,0.06,0.69-0.11c0.39-0.12,0.67,0.86,0.92,0.89c0.41,0.34,0.18,0.83,0.15,1.26c0.14,0.28,0.19,0.31,0.45,0.33
				c0.27,0.3,0.33,0.38,0.38,0.66c-0.07,0.23-0.07,0.29-0.38,0.55c-0.85-0.37-1.6,0.23-2.31,0.28c-0.74,0.34-0.63,1.24-0.83,1.88
				c-0.17,0.88-0.99,0.44-1.54,0.6c-0.72,0.23-1.54,1.06-1.61,1.77h0.04c0.21-0.14,0.41,0.11,0.51,0.28
				c0.6,1.47-1.46,0.97-1.77,2.05c-0.01,0.35,0.07,0.73,0.13,1.11c0.06,0.45,0.09,0.9-0.13,1.33c0.21,0.3,0.44,0.72,0.78,0.82
				c0.33-0.85,1.17-0.02,1.77-0.23c1.15-0.09,0.73,1.59,1.93,1.38c0.16,0.26,0.34,0.55,0.27,0.83c0.04,0,0.12,0.02,0.16-0.04
				c0.04,0.39,0.51,0.11,0.72,0.27c0.57,0,0.57,0.64,0.55,1.1c0.21,0.52,0.78,0.42,1.11,0.83c-0.03,0.25,0.04,0.53-0.05,0.76
				c0.14,0.42,0.44,0.16,0.76,0.23c0.41,0.25,0.83,0.02,1.23,0.33c0.38,1.05,1.35-0.17,1.97,0.15c0.14-0.3,0.53-0.71,1.01-0.55
				c0.55,0.16,0.16,0.85,0.33,1.17c0.11,0,0.24-0.02,0.32,0.05c0.76,0.53-0.24,1.01-0.16,1.61h0.12c0.55,0.07,0.85,0.71,0.71,1.22
				c0.67,0.09,1.56-0.53,2,0.32c0.04,0.44,0.36,0.85-0.07,1.21c-0.72-0.04-0.66,0.49-0.76,0.96c-0.05,0.24-0.14,0.46-0.38,0.59
				c-0.37,0.09-0.6-0.13-0.83-0.39c-0.12,0.05-0.47-0.09-0.35,0.12c-0.35-0.23-0.69,0.19-0.87,0.28c-0.74,0.27-1.73,0.04-2.32-0.44
				c-0.13-0.09-0.24-0.14-0.36-0.15h-0.15C80,80.34,79.55,80.78,79,80.56c-0.05-0.11-0.11-0.2-0.17-0.26
				c-0.56-0.65-1.46,0.36-2-0.47c-0.27,0.19-0.36,0.34-0.36,0.47c0.01,0.38,0.94,0.56,0.92,1.09c-0.58,0.81-0.71,1.86-0.71,2.85
				c-0.41,0.98-1.4-0.3-1.94,0.39c-0.34,0.29,0.21,0.48,0.04,0.82c-0.2,0.35-0.57,0.51-0.98,0.51c-0.39-0.3-0.67-0.78-0.55-1.27
				c-0.1-0.27-0.44-0.18-0.66-0.27c-0.39,0.09-0.85,0.27-1.03,0.64c0.32,0.23,0.89,0.21,0.99,0.67c-0.26,0.25-0.55,0.41-0.88,0.51
				c-0.11,1.01-1.66,1.21-1.84,2.32c0.1,0.3-0.41,0.62,0,0.83c0.62,0.18,0.53,0.92,0.47,1.42c1.26-0.39,0.18,1.29,1.15,1.27
				c0.94,0.11,0.91,1.47,1.97,1.26c0.36,0.09,0.42,0.43,0.52,0.71c0.09,0.28,0.19,0.49,0.58,0.39c0.6,0.67,1.4,0.76,2.21,1.01
				c0.27-0.23,0.71-0.16,1.01-0.18c0.18,0.09,0.33,0.3,0.33,0.5c0.16,0.26,0.41,0.26,0.59,0.39c0.39-0.39,1.08-0.21,1.57-0.16
				c0.58,0.32,1.1,0.83,1.43,1.42c-0.18,0.83,0.57,1.82-0.16,2.53c-0.27,0.41-0.6-0.02-0.89-0.04c0.02,0.64,1.01,0.3,1.22,0.94
				c-0.28,0.49,0.11,1.29-0.33,1.66c0.14,0.03,0.21,0.18,0.33,0.28c0.23,0.92-0.92,0.8-1.22,1.42c-0.48,0.27-0.78-0.25-1.27-0.21
				c-0.09,0.28-0.48,0.14-0.59,0.33c0.36,0.43,0.52,1.19-0.17,1.42l0.28,0.28c0.23,0.48,0.05,1.08-0.18,1.49
				c0,0.1-0.02,0.19-0.07,0.27h0.04c-0.13,0.24-0.44,0.06-0.53,0.56c0.1,0.36,0.1,0.42,0.33,0.54c0.35,0.17,0.68-0.01,0.75,0.17
				c0.12,0.02,0.16-0.04,0.23-0.06c0.51-0.05,0.13,0.47,0.41,0.68c0.16-0.07,0.33-0.14,0.5-0.11c0.51,0.06,0.41,0.67,0.51,1.06
				c0.25,0,0.59-0.33,0.76,0.09c-0.12,0.76,1.1,0.07,2.13,0.76c0.69,0.58-1.07,1.15-1.72,1.73c-0.34,1.04-1.58,0.69-1.47,1.7
				c0.55,1.4,1.66,1.13,1.96,1.72c0.11-0.13-0.02-0.39,0.09-0.55c0.25-0.14,0.67-0.3,0.83,0.11c0.13,0.07,0.41,0.35,0.55,0.12
				c0.69-0.55,1.03,0.53,1.66,0.32c0.35,0.1,0.64,0.35,0.66,0.71c-0.24,0.05-0.32,0.67-0.76,0.46c-0.3,0.56-0.69,0.9-1.28,1.27
				c-0.28,0.41,0.32,0.8,0,1.22c-0.57,0.43-0.32,0.7-0.19,1.27h-0.04c0.01,0.04,0.01,0.07,0.02,0.11c1.17-0.09,0.6,1.18,1.61,1.48
				c0.33,0.39,0.3,0.82,0.21,1.22c-0.11,0.33-0.39,0.23-0.59,0.55c-0.58,0.81,0.57,0.88,0.5,1.61c-0.64,0.74,0.44,1.22,0,1.97
				l-0.12-0.11c-0.11,0.06,0.02,0.16,0.05,0.23l-0.21,0.05c0.47,0.48,0.92,1.25,0.87,2.04c-0.61,0.88,0.51,1.7-0.11,2.49
				c-0.23,0.58,0.39,0.83,0.62,1.21c0.04,0.34,0.2,0.63,0.4,0.92h0.11c0.31,0.46,0.41,0.94,0.45,1.51
				c-0.16,0.41-0.18,0.78-0.52,1.05c0.21,0.53,0.24,1.2,0.58,1.89c0.23,0.4-0.69,0.4,0.25,1.03l-0.13,0.52
				c-0.35,0.81,0.1,0.66,0.17,0.81c0.02,0.46-0.1,0.7,0.29,0.74c0.29,0.46,0.11,0.57,0.81,0.28c0.35-0.04,1.15-0.51,1.31-0.19
				c1.34-0.44,0.53-1.84,1.15-2.71c0.3-0.05,0.3,0.3,0.44,0.46c1.4-0.27-0.19-1.58,0.67-2.16c0.32-0.21,0.92-0.1,1.26,0.11
				c0.03,0.35,0.39,0.76,0.35,1.15c0.75,0.18,0.64-0.87,1.32-0.94c0.27-0.28,0.59,0.04,0.83,0.18c0.11,0.3-0.16,0.67-0.16,0.92
				c0.3-0.21,0.34-0.09,0.71-0.27c0.32,0.18,0.37,0.57,0.34,0.83c0.12,0.03,0.21,0,0.28-0.09c0.16,0.07,0.33,0.27,0.49,0.27
				c0.13-0.16,0.21-0.34,0.16-0.55c0.36-0.23,0.38-0.81,0.82-1.11l-0.09-0.11l0.09-0.11c0.02,0.19,0.27,0.09,0.39,0.16
				c0.16-0.41-0.1-0.92,0.27-1.31c0.72-0.12,0.69,0.85,1.17,0.92c0.07-0.5-0.01-0.76,0.33-1.24c0.21-0.53,0.2-0.28,0.24-0.8
				c0.36,0.93-0.01,0.46,0.17,1.5c-0.16,0.25,0.64,1.38,0.69,1.72c0.64-0.11,0.73-0.83,1.26-1.17c0.8,0.32-0.1,1.11,0,1.61h0.12
				c0.67,0,0.56,0.81,0.59,1.34c-0.14,0.28-0.48,0.5-0.1,0.83c0.21,0.15-0.23,0.48,0.17,0.48c0.18-0.12,0.24-0.35,0.2-0.48
				c0.27-0.19-0.04-0.81,0.27-1.06c0.27-0.34,0.51,0.18,0.74,0.16c0.98-0.81,0.6,0.88,1.38,0.9c0.5,0.09,0.27-0.51,0.48-0.74
				c0.23,0.14,0.23-0.25,0.35-0.36c-0.21-0.51-0.14-0.96,0.16-1.38c0.17-0.37,0.66-0.3,0.72-0.07c0.62-0.44,0.85-1.15,1.43-1.65
				c0.52-0.09,0.55,0.64,1.06,0.62c0.3-0.23,0.35-0.76,0.39-1.17c0.55-0.37,0.44-1.2,1.04-1.54c0.38-0.02,0.48-0.48,0.73-0.74h-0.11
				c0.03-0.04,0.06-0.06,0.09-0.09c0.96-0.46,0.69-1.51,0.89-2.44c0.25-0.78-0.21-1.68-0.44-2.48c-0.51,0.27-0.16-0.47-0.63-0.44
				c-0.34-0.35-0.47-0.95-0.87-0.99c-0.04-0.23-0.16-0.67-0.27-0.99c0.16-0.3,0.07-0.76,0.49-0.9c-0.33-0.81,1.5-0.9,0.83-1.75
				c-0.71-0.5-0.07-1.24-0.28-1.88l-0.23,0.16c-0.04-0.07-0.13-0.11-0.09-0.21c0.13,0,0.23-0.28,0.37-0.12l0.18-0.16
				c-0.02-0.18-0.46-0.3-0.5-0.46c0.37-0.34,0.16-0.71-0.04-0.87c-0.02-0.06-0.04-0.11-0.05-0.16h0.04
				c-0.12-0.47,0.24-0.84,0.33-1.34c-0.1,0.07-0.14,0.18-0.23,0.16c0.23-0.41,0.1-1.27,0.44-1.76c0.37,0.32,0.51,0.93,0.63,1.21
				c-0.07,0.9,0.21,1.26,0.83,1.74c0.41,0.3,0.72,0.67,0.72,1.26c1.29,0.07,0.66,1.46,1.12,2.15c-0.16,0.18,0.69,0.57,0.81,0.77
				c0.48,0.16,0.81,0.92,1.22,1.26c-0.44,1.01,0.76,1.36,0.71,2.28c0.48-0.03,1.66,0.49,2.15,0.21c0.25-0.64,0.89-0.96,1.49-1.26
				c0.39,0.16,0.3,0.69,0.39,0.94c0.55,0.32,0.96,0.34,1.47,0.37c0.27,0.23,0.73,0.13,0.89,0.55c0.3,0.44,0.49-0.09,0.83-0.09
				c0.35-0.92-0.34-1.68-0.83-2.16c0.74-0.21,0.35-1.11,0.76-1.54c1.18-0.23,2.48-0.55,3.38,0.44c0.3,0.26,0.23,0.85,0.72,0.83
				c0.55,0.78,1.66,0.78,2.09,1.77c-0.21,1.24,0.58,1.05,1.17,1.88c-0.11,0.43,0.25,0.55,0.44,0.87c0.44,0.69,0.64,1.54,0.27,2.32
				c0.1,0.23,0.35,0.35,0.55,0.44c0.04,0.16,0.21,0.3,0.27,0.47l0,0c0.03,0.1,0.01,0.2-0.1,0.3c-0.13,0.21-0.23,0.71,0.12,0.83
				l0.16-0.16c0.26-0.1,0.61,0.02,0.72,0.28c0.02,0.23,0.21,0.56,0,0.76c-0.14,0.26-0.18,0.72,0.12,0.9
				c0.82,0.14,0.27,1.04,0.5,1.48c0.35,0.23,0.47,0.78,0.32,1.1c0.33,0.07,0.61,0.23,0.84,0.51c0.21,0.37-0.19,0.48-0.33,0.78
				c-0.05,0.32,0.16,0.6,0.39,0.76c0.21,0.69-0.35,1.2-0.55,1.77c-0.27,0.55,0.19,0.34,0.49,0.55c0.85,0.25,0.41,1.03,0.98,1.5
				c-0.02,0.66,0.86,1,0.62,1.7c-0.55,0.46-0.61,1.13-0.35,1.72c-0.17,0.03-0.31,0.26-0.39,0.42c-0.04,0.06-0.12,0.15-0.2,0.23
				c-0.16,0.23-0.16,0.67,0,0.9c0.19,0.3,0.46,0.71,0.87,0.76c1.15,0.57,0.39,2.07,0.47,3.03c-0.51,1.63,1.51,1.81,1.86,3.04
				c1.15,0.62,0.85,2.02,1.77,2.82c-0.25,0.9,0.99,0.81,1.06,1.54l0.16-0.44c-0.04-1.29-0.76-2.3-0.9-3.54
				c0.05-0.46,0.19-0.87-0.09-1.26c-0.53-0.3-1.2-0.83-1.33-1.42c0-0.49-0.4-1.18,0.23-1.56c0.41-0.92-0.04-0.79-0.34-1.38
				c0-0.51-0.1-0.34,0.07-0.98c0.17-1.09,0.61-1.1,1.03-1.03c0.54,0.66,0.27-0.13,0.84-0.36c0.8,0.3,0.57-0.76,1.1-1.03
				c0.81-0.2,0.41,1.03,1.26,0.72c0.62,0.3,0.28,0.97,0.47,1.43c0.57-0.37,0.82,0.83,1.26-0.11c0.84-0.19,0.51,0.89,1.22,0.94
				c0.07,0.84,0.19,1.52,0.56,1.49C150.76,153.95,151.1,153.92,150.93,153.63z"/>
			<path id="XMLID_7747_" class="st3" d="M145.69,163.26c-0.03-0.03-0.28-0.15-0.4-0.26c-0.07-0.08-0.3,0.17-0.37,0.26
				c-0.71,0.77,0.43,1.25,0.85,1.51c0.22,0.14,0.65-0.51,0.52-0.67C145.86,163.51,146.13,163.24,145.69,163.26z"/>
			<path id="XMLID_7746_" class="st3" d="M138.42,150.03c-0.04,0-0.08,0-0.13,0c-0.07-0.02,0,0.11-0.09,0.08c0,0.06,0,0.12,0,0.18
				c-0.08,0.13-0.04,0.31-0.13,0.43c-0.09,0.01-0.16,0.18-0.26,0.18c-0.07,0.09-0.15,0.11-0.26,0.17c0.02,0.06-0.07,0.1-0.05,0.17
				c-0.07-0.02-0.01,0.1-0.07,0.09c0,0.03,0,0.06,0,0.08c-0.02,0.04-0.04,0.06-0.1,0.05c0,0.04,0,0.08,0,0.13
				c-0.02,0.03-0.05,0.16-0.08,0.2c-0.07,0.02-0.01,0.22-0.08,0.23c0,0.11,0,0.23,0,0.34c0.09,0.11,0.1,0.26,0.21,0.35
				c0.08,0.01,0.16,0.01,0.21,0.08c0.13,0.03,0.23-0.03,0.35-0.04c0-0.04,0.1-0.04,0.1-0.09c0.1-0.02,0.06-0.13,0.16-0.15
				c-0.03-0.08,0.06-0.18,0.04-0.26c0.11-0.2,0.12-0.28,0.21-0.41c0.05-0.34,0.15-0.92,0.24-1.25
				C138.65,150.35,138.75,150.15,138.42,150.03z"/>
			<path id="XMLID_7745_" class="st3" d="M138.56,148.84c-0.26,0.49-0.25,0.34-0.28,0.37c-0.07,0.01-0.24,0.18-0.3,0.19
				c0,0.11-0.13,0.1-0.13,0.21c0.09,0.1-0.01,0.19,0.1,0.28c0.08,0.01,0.16,0.01,0.21,0.09c0.13,0.03,0.24-0.03,0.35-0.04
				c0-0.05,0.11-0.05,0.11-0.09c0.09-0.02,0.05-0.13,0.15-0.15c-0.03-0.08,0.06-0.18,0.04-0.26c0.11-0.19,0.12-0.28,0.21-0.41
				c0.05-0.34,0.17-0.66,0.26-0.99c-0.05-0.24-0.02-0.5-0.13-0.73c-0.04,0-0.16,0-0.2,0c-0.07-0.01,0,0.13-0.08,0.09
				c0,0.06,0,0.11,0,0.17c-0.09,0.12,0.15,0.19-0.04,0.58C138.79,148.41,138.85,148.45,138.56,148.84z"/>
			<path id="XMLID_7744_" class="st3" d="M117.25,138.39c-0.12,0.19,0.04,0.42-0.12,0.51c0.47-0.3,0.67-0.9,0.74-1.45
				c0.92-0.88,0.95-2.28,1.03-3.47c0.21-0.37,0.55-0.62,0.5-1.06c-0.57-0.62-0.25-1.49-0.5-2.3c-0.3-0.67-1.12-1.1-1.38-1.77
				l0.23-0.5c-1.08-0.56-1.93-1.61-2.15-2.81l-0.77-0.62c-1.57-0.05-0.27,1.64-1.22,2.21c-0.48,0.83,0.92,0.9,0.61,1.57
				c0.22-0.25,0.41-0.74,0.78-0.34c0.39,1.1,0.48,2.53,1.27,3.47c-0.03,1.65-0.81,3.13-1.94,4.32c0.21,0.18,0.44,0.27,0.59,0.55
				c0.52,0.9-0.94,0.74-0.55,1.47l0.39-0.32c0.23,0.02,0.48-0.05,0.67,0.04c0.09,0.23-0.17,0.34-0.05,0.5
				c-0.16,0.31-0.62,0.53-0.47,0.88h0.07c0.18-0.3,0.21-0.69,0.67-0.76c0.5-0.1,0.3,0.43,0.32,0.67l0.28-0.19l0.11,0.38
				c0.41-0.3,0.58-1.01,0.98-1.15v0.12C117.34,138.38,117.29,138.42,117.25,138.39z"/>
			<path id="XMLID_7743_" class="st3" d="M119.1,137.14c-0.33,0.36-0.05,0.55,0.26,0.46c0.7-0.16,1.5-1.04,1.32-2.01
				C120.25,135.16,119.37,136.66,119.1,137.14z"/>
			<path id="XMLID_7742_" class="st3" d="M127.27,126.57v-0.11c-0.46,0.23-0.23,0.79,0,1.07c0.44,0.05,0.78,0,1.12-0.28
				C128.5,126.29,127.71,127.02,127.27,126.57z"/>
			<path id="XMLID_7741_" class="st3" d="M112.94,127.31l-0.39,0.21c-0.13,0.44,0.24,0.5,0.35,0.83c0.34,0.15,0.35,0.92,0.82,1.05
				l-0.18-0.55c0.55-0.58-0.51-0.5-0.44-0.9C112.79,127.89,113.02,127.47,112.94,127.31z"/>
			<path id="XMLID_7740_" class="st3" d="M129.34,127.87c-0.62,0.18-0.71,0.78-1.1,1.15c-0.05,0.73,0.07,1.28,0.12,1.93
				c-0.33,1.04,1.08,1.33,0.83,2.44c0.22,0.39,0.75,0.75,1.19,0.71c0.32-0.39,0.83-0.28,1.17-0.62c1.28-0.94-0.47-1.81-0.55-2.8
				C129.92,130,130.69,128.21,129.34,127.87z"/>
			<path id="XMLID_7739_" class="st3" d="M114.64,134.93c-0.16-0.99,1.17-1.36,1.06-2.33c0.24-1.08-0.83-1.63-0.83-2.71
				c-0.23,0.02,0.04-0.32-0.16-0.33c-0.53-0.17-0.53,0.15-0.55,0.33c0.58,0.69,0.48,1.63,0.71,2.43c-0.44,1.02-0.69,2.57-0.78,3.27
				C114.5,135.84,114.58,135.2,114.64,134.93z"/>
			<path id="XMLID_7738_" class="st3" d="M124.59,130.39c-0.24,0.16-0.43,0.33-0.55,0.57c-0.03,0.2-0.01,0.46,0.08,0.64
				c0.01,0.02,0.03,0.04,0.06,0.03c-0.05,0.07,0.1,0.07,0.05,0.14c0.03-0.01,0.05,0.01,0.06,0.03c0.02,0.05,0.29,0.5,0.33,0.54
				c0.07,0.08,0.34,0.1,0.3,0.31l0.44-0.12c0.44-0.21,0.16-0.54,0.16-1.04C125.24,130.97,125.19,130.47,124.59,130.39z"/>
			<path id="XMLID_7737_" class="st3" d="M114.28,137.02l-0.35-0.16c0.16-0.85-0.67-0.13-0.67-0.78c-0.13,0.3-0.43,0.32-0.32,0.67
				c-0.18,0.05-0.34,0.37-0.39,0.16c-0.23,0.09,0.35,0.59-0.16,0.62c-0.11-0.05-0.32,0.02-0.27,0.16c0.46,0,0.58-0.12,0.87-0.39
				c0.11-0.14,0.37-0.14,0.51-0.05C113.74,137.8,114.08,137.14,114.28,137.02z"/>
			<path id="XMLID_7736_" class="st3" d="M120.87,134.31l0.03-0.2l-0.04-0.19l-0.13-0.28c0.03,0.19-0.07,0.05-0.1,0.23l-0.06,0.29
				l0.13,0.08L120.87,134.31z"/>
			<path id="XMLID_7735_" class="st3" d="M112.83,138.29c0.18,0.04-0.12,0.39,0.34,0.66c0.23-0.35,0.27-0.43,0.09-1.1
				C113.15,138.06,112.88,138.1,112.83,138.29z"/>
			<path id="XMLID_7734_" class="st3" d="M119.33,138.08c-0.07,0.21-0.21,0.88-0.02,1.06c0.14-0.02,0.62-0.02,0.69-0.23
				C120.28,138.34,119.57,138.26,119.33,138.08z"/>
			<path id="XMLID_7733_" class="st3" d="M94.18,140.45c-0.78-0.09-0.48-1.01-0.83-1.5l-0.24-0.05c-0.23,0.6,0.03,1.27-0.2,1.81
				c0.02,0.23,0.53,0.88,0.69,0.9C93.95,141.62,94.22,140.95,94.18,140.45z"/>
			<path id="XMLID_7732_" class="st3" d="M112.55,139.06c-0.86-0.32-0.29,0.51-0.27,0.74l0.29-0.16L112.55,139.06z"/>
			<path id="XMLID_7731_" class="st3" d="M114.22,138.95l-0.33,0.28c-0.15,0.34-0.09,1.01,0.48,0.83l-0.04,0.28
				c0-0.09,0.44-0.02,0.32-0.28c-0.11-0.25,0.01-0.52-0.18-0.59L114.22,138.95z"/>
			<path id="XMLID_7730_" class="st3" d="M109.93,139.26l-0.16,0.23c-0.02,0.23,0.01,0.27-0.24,0.29c-0.16,0.76-0.35,0.74-0.5,1.5
				c0.09,0.27,0.13,0.87,0.3,1.03c0.46-0.39,0.05-0.79,0.1-1.29c0.1-0.64,0.98-0.7,0.87-1.53
				C110.3,139.26,110.14,139.29,109.93,139.26z"/>
			<path id="XMLID_7729_" class="st3" d="M95.59,140.91l0.37-1.42c0.13-0.87-2.19,1.17-1.23,1.37L95.59,140.91z"/>
			<path id="XMLID_7728_" class="st3" d="M111.57,139.78c-0.23,0.35-1.32,0.96-0.67,1.77c0.44,0.09,0.4-0.5,0.81-0.71
				C111.54,140.36,111.92,140.36,111.57,139.78z"/>
			<path id="XMLID_7727_" class="st3" d="M112.44,140.17l0.11,0.6c0.09-0.13,0.57,0.25,0.78-0.79
				C113.03,140.1,112.9,139.64,112.44,140.17z"/>
			<path id="XMLID_7726_" class="st3" d="M100.52,138.82c-0.88,0.1-0.24,1.36,0.04,2.11c0.09,0.7,0.58,0.58,0.75,0.13
				C101.79,140.12,101.08,138.8,100.52,138.82z"/>
			<path id="XMLID_7725_" class="st3" d="M99.92,141.46c-0.2-0.48-0.65-0.83-0.24-1.24v-0.27c-0.21-1.17-0.44,0.44-0.48,0.41
				l0.07-0.07c0.1,0.1,0.01,0.07-0.06,0.24l-0.43,0.03l0.31,0.9c-0.3,0.65,0.59,0.76,0.76,1.14l0.07-0.08l0.1,0.41l0.49-0.51
				c0.04-0.31,0.04-0.86-0.31-1.14L99.92,141.46z"/>
			<path id="XMLID_7724_" class="st3" d="M115.66,140.65c-0.38,0.1-0.73,0.16-0.95,0.5l0.91,0.29
				C116.83,140.87,115.57,140.72,115.66,140.65z"/>
			<path id="XMLID_7723_" class="st3" d="M93.03,141.67c-0.33,0.25-0.55-0.24-0.73-0.35c-0.33,0.35,0,0.9-0.49,1.17
				c-0.3,0.1,0.14,0.53-0.27,0.33l-0.28,0.39c0.07,0.51,0,1.2,0.49,1.59c0.3,0.12,0.71,0.3,1.01,0.07c0.27-0.16,0.55-0.53,0.6-0.89
				C92.82,143.36,92.7,142.33,93.03,141.67z"/>
			<path id="XMLID_7722_" class="st3" d="M87.94,142.18c-0.38-0.29-1.04,0.32-1,0.72c0.15,0.56,0.89,0.91,1.44,1.08
				C87.41,143.66,88.49,142.74,87.94,142.18z"/>
			<path id="XMLID_7721_" class="st3" d="M97.26,142.38c0.11,0.07,0.23,0.29,0.34,0.21c0.35,0.09,0.21-0.32,0.33-0.49
				C97.86,141.15,97.29,142.03,97.26,142.38z"/>
			<path id="XMLID_7720_" class="st3" d="M94,142.02l-0.49,0.24c-0.1,0.37-0.13,1.63,0.26,1.77l0.41-1.04
				C94.87,142.59,94.7,142.07,94,142.02z"/>
			<path id="XMLID_7719_" class="st3" d="M95.45,141.73l0.58,0.69l0.81,0.23C96.6,141.56,95.5,141.8,95.45,141.73z"/>
			<path id="XMLID_7718_" class="st3" d="M106.8,142.33c-0.33-0.11-0.97-0.2-1.31-0.3c-0.24,0-0.24,0.42-0.21,0.5
				c0.44,0.67,1.11-0.11,1.54,0.12l0.02-0.15c-0.06,0-0.16-0.06-0.18-0.13C106.67,142.42,106.87,142.31,106.8,142.33z"/>
			<path id="XMLID_7717_" class="st3" d="M95.33,144.3c-0.13-0.25,0.05-0.52,0.07-0.78c-0.32-0.09-0.48-0.76-0.89-0.44
				c0.13,0.59,0.01,1.21-0.1,1.77c0.21,0.3,0.44,0.62,0.83,0.67c0.44,0.06,0.55-0.58,0.49-0.9C95.63,144.56,95.5,144.35,95.33,144.3
				z"/>
			<path id="XMLID_7716_" class="st3" d="M96.55,143.04l-0.48,0.41c0.21,0,0.01,1.08,0.41,0.92h0.58c-0.02,0.04-0.02-0.54,0-0.52
				l0.29-0.18C97.32,143.53,96.81,143.2,96.55,143.04z"/>
			<path id="XMLID_7715_" class="st3" d="M88.66,144.53l0.07,0.43c-0.01-0.04,0.23,0.55,0.07,0.41c0.18,0.42-0.24,0.47-0.05,0.74
				c0.18-0.33,0.41,0.08,0.43-0.82c0.07-0.34,0.14-0.69-0.16-0.81C88.88,144.57,88.74,144.49,88.66,144.53z"/>
			<path id="XMLID_7714_" class="st3" d="M124.26,132.5c0.01-0.11,0.06-0.38,0-0.51c-0.02-0.05-0.04-0.12-0.07-0.17
				c-0.1-0.16-0.24-0.26-0.32-0.4c-0.03-0.06-0.07-0.22-0.09-0.28c-0.04-0.06-0.16-0.19-0.12-0.31l-0.62-0.83
				c-0.46-0.16-0.57,0.26-0.83,0.51c-0.92,0.76,0.63,1.54-0.04,2.33c-0.04,0.28-0.24,0.76,0.16,0.92c0.27,0.34-0.05,0.71-0.05,1.05
				c0.53,0.74-0.57,1.27-0.1,2.09c-0.21,0.66-1.13,0.9-1.39,1.54c-0.07,0.58-0.25,1.2,0.05,1.77c0.21,0.07,0.3-0.09,0.5-0.04
				c0.53-0.81,1.47-0.85,2.14-1.45c0.12-0.23-0.34-0.33-0.09-0.55c0.02,0.14,0.16,0.09,0.16,0.23c0.04-0.13,0.61,0.12,0.67-0.39
				c-0.1-0.87,0.74-1.4,0.99-2.13c-0.04-0.9,0.16-2.02-0.39-2.76C124.42,133.04,124.68,132.53,124.26,132.5z"/>
			<path id="XMLID_7713_" class="st3" d="M96.94,140.93c-0.07-0.94-0.64-0.07-0.67,0.28c0.12,0.07,0.23,0.3,0.35,0.21
				C96.96,141.5,96.83,141.09,96.94,140.93z"/>
			<path id="XMLID_7712_" class="st3" d="M116.03,124.77c0.06-0.47-0.07-0.93-0.21-1.38c-0.03-0.09-0.14-0.18-0.2-0.1
				c-0.14,0.19-0.04,0.41-0.25,0.76c-0.18,0.31,0.33,0.52,0.47,0.84C115.89,124.85,116.02,124.82,116.03,124.77z"/>
			<path id="XMLID_7711_" class="st3" d="M113.85,122.58c0.08-0.03,0.31,0.23,0.31,0.18c0.06-0.47-0.07-0.92-0.21-1.37
				c-0.03-0.09-0.15-0.18-0.21-0.1c-0.13,0.2-0.05,0.42-0.24,0.76C113.31,122.35,113.71,122.28,113.85,122.58z"/>
			<path id="XMLID_7710_" class="st3" d="M113.35,124.12c-0.18,0.3,0.21,0.23,0.35,0.54c0.08-0.04,0.32,0.23,0.32,0.17
				c0.06-0.46-0.09-0.53-0.23-0.97c-0.03-0.09-0.18,0.03-0.24,0.12C113.42,124.17,113.55,123.77,113.35,124.12z"/>
			<path id="XMLID_7709_" class="st3" d="M120.63,132.88l0.01,0.1c-0.01,0.12-0.07,0.24-0.18,0.25c-0.07,0.37-0.17,0.36-0.24,0.73
				c0.04,0.13,0.07,0.42,0.14,0.5c0.22-0.19,0.04-0.39,0.05-0.64c0.05-0.3,0.38-0.28,0.33-0.68
				C120.74,133.03,120.73,132.88,120.63,132.88z"/>
			<path id="XMLID_7708_" class="st3" d="M102.59,140.25c-0.19,0.16-0.72,0.27-0.55,0.48c0.36,0.48,0.44,0.54,0.65,0.82
				C103.9,141.44,103.17,140.49,102.59,140.25z"/>
			<path id="XMLID_7707_" class="st3" d="M87.5,144.3c0.07,0.79,0.3,0.67,0.58,0.99c0.16-0.04,0.47,0.06,0.49-0.13
				C88.96,144.93,87.36,143.58,87.5,144.3z"/>
			<path id="XMLID_7706_" class="st3" d="M89.02,143.96c-0.22,0.04-0.41-0.41-0.67-0.17c-0.21,0.61,0.98,0.65,1.38,0.38
				C89.83,143.79,89.41,143.89,89.02,143.96z"/>
			<path id="XMLID_7705_" class="st3" d="M118.59,137.85c-0.69,0.2-1.01,1.18-0.75,1.44c0.47,0.39,0.8-0.51,1.03-1.01
				C119.19,137.91,118.9,137.73,118.59,137.85z"/>
			<path id="XMLID_7704_" class="st3" d="M120.08,130.95c0.16,0.06,0.38,0.35,0.52,0.19c0.5,0.04,0.2-0.49,0.33-0.74
				C120.58,129.14,120.02,130.48,120.08,130.95z"/>
			<path id="XMLID_7703_" class="st3" d="M90.52,143.31c-0.18,0.15-0.72,0.26-0.55,0.47c0.37,0.48,0.44,0.54,0.66,0.83
				C91.82,144.49,91.09,143.53,90.52,143.31z"/>
		</g>
	</g>
	<path id="XMLID_7692_" class="st0" d="M88.68,200.36c-0.52-0.33-1.2-0.16-1.51,0.36c-0.31,0.52-0.14,1.21,0.39,1.53l2.79,1.71
		c0.52,0.32,1.2,0.15,1.51-0.36c0.31-0.53,0.13-1.21-0.39-1.53L88.68,200.36z M152.52,192.07c0,0-4.06,3.26,0.86,2.96
		c0,0,1.74-1.62,2.75-1.77C156.12,193.25,158.15,190.29,152.52,192.07z M156.27,178.91c2.46-2.21,0.44-3.55,0.44-3.55
		c-32.12,22.47-66.11,12.56-66.11,12.56c-9.11,0.15-28.78-12.71-28.78-12.71c-3.47,2.07,2.74,5.76,2.74,5.76
		c2.03,0.45,1.17,4.58,1.17,4.58c-4.06,2.96-5.17-0.88-5.17-0.88c0.19-1.28-0.77-0.89-0.77-0.89c-2.02,4.43,2.02,6.36,2.02,6.36
		c0.29,0.6,7.95-0.74,7.95-0.74c5.51-2.22,4.49,5.17,4.49,5.17c-1.88,3.26,1.45,3.7,1.45,3.7c0.29-0.39,3.47-7.88,3.47-7.88
		c0.68-3.94,3.95-1.88,3.95-1.88c2.89,1.18,10.8,2.86,10.8,2.86c4.43,0.11,2.89,1.58,2.89,1.58c-0.14,0.44-13.31,0.29-13.31,0.29
		c-2.75,2.52,0.44,3.55,0.44,3.55c5.64-0.44,11.57,4.58,11.57,4.58c1.16,2.07,3.47,1.92,3.47,1.92c0.43-1.48,1.45-6.65,1.45-6.65
		c-0.15-4.74,2.75-4.29,2.75-4.29c2.45,1.04,13.11,0.39,13.11,0.39c3.47-0.98,1.26,1.29,1.26,1.29l-7.91,2.07
		c-4.63,0.99-3.67,1.97-3.67,1.97c-0.87,3.15,2.8,2.66,2.8,2.66c9.06-2.17,12.44,2.37,12.44,2.37c0.86,1.68,3.09-0.39,3.09-0.39
		c-0.39-0.39-0.73-7.25-0.73-7.25l2.75-0.14c4.63-0.74,1.88,1.77,1.88,1.77c-1.88,0-1.88,1.93-1.88,1.93
		c1.01,2.22,4.92-0.89,4.92-0.89c3.9-5.03-7.23-6.36-7.23-6.36l6.36-1.63c1.74-1.33,3.33-0.14,3.33-0.14l2.46,7.54
		c0.72,3.84,3.75,2.07,3.75,2.07l-2.16-6.65c-1.45-5.18,0.29-4.88,0.29-4.88l9.98-4.59c4.63-3.99,4.78-1.33,4.78-1.33l-7.81,6.22
		c-5.07,3.54-0.44,5.32-0.44,5.32c7.96-7.54,16.63-4.44,16.63-4.44C162.2,188.07,156.27,178.91,156.27,178.91z M76.28,189.26
		c-1.15,0.29-2.31-1.48-2.31-1.48c0.13-2.51-6.08-2.22-6.08-2.22c-0.58-2.22,0.3-2.66,0.3-2.66c2.31-1.77,8.82,3.99,8.82,3.99
		L76.28,189.26z M97.12,199.46c0,0-2.32,0-4.49-2.66c0,0-0.86-2.22,3.18-0.89C95.81,195.91,98.99,196.36,97.12,199.46z
		 M119.82,199.61l-1.3-0.59c-3.91-0.3,0-2.51,0-2.51C120.83,195.91,119.82,199.61,119.82,199.61z M154.68,187.34
		c0,0-3.18,0.59-0.87-1.93c0,0,0.73-1.18,2.46-0.74C156.27,184.67,157.71,187.18,154.68,187.34z"/>
	<path id="XMLID_7678_" class="st0" d="M32.98,62.94c-3.47-0.2-3.08-3.55-3.08-3.55c-1.54-1.18-2.89,3.55-2.89,3.55
		c2.69,0.99,0.18,2.56,0.18,2.56c-3.08,0.98-4.24,5.12-4.24,5.12c-1.74,10.25,6.17,9.06,6.17,9.06c4.83-3.35,2.51-8.27,2.51-8.27
		c-0.78-2.57-2.89,0.59-2.89,0.59c1.54,5.12-1.35,5.52-1.35,5.52c-4.63-3.94,0.58-10.45,0.58-10.45c2.51-3.75,8.68,0.79,8.68,0.79
		c2.31,1.18,2.12-1.78,2.12-1.78L32.98,62.94z M24.11,82.46c-2.51-0.2-2.31-2.37-2.31-2.37c-1.35-0.79-2.12,3.35-2.12,3.35
		c2.12,0.6,0.58,2.57,0.58,2.57c-2.7,1.97-3.08,9.06-3.08,9.06c1.34,8.48,5.2,6.12,5.2,6.12c2.31-0.4,0.38-5.92,0.38-5.92
		c0.97-9.07,2.7,0.79,2.7,0.79c0.58,3.94,3.28,0.59,3.28,0.59c-0.39-3.75-2.9-7.69-2.9-7.69c-1.74-3.15-4.43,1.78-4.43,1.78
		c0.58,5.52-1.35,3.55-1.35,3.55c-2.12-5.71,2.31-8.48,2.31-8.48c2.12-1.57,7.52,0.4,7.52,0.4c3.08,0.39,1.54-1.97,1.54-1.97
		L24.11,82.46z M119.53,12.13c-5.64-7.1-12.58-4.58-12.58-4.58c-6.5,0.59-3.18,3.25-3.18,3.25c4.05-1.32,9.7-1.32,9.7-1.32
		c5.5,1.47,2.02,3.55,2.02,3.55c-2.89-1.03-18.95,0.45-18.95,0.45c-19.24,2.36-38.34,13.89-38.34,13.89
		c-5.64,2.36-18.22,15.52-18.22,15.52l1.31,2.22c-0.58,1.18-3.77,1.63-3.77,1.63c-4.77,1.33-5.06,8.28-5.06,8.28
		c-1.3,4.58,2.6,1.77,2.6,1.77c1.59-3.25,2.32-0.44,2.32-0.44c0.72,2.07,2.74,0.14,2.74,0.14c0.72,0.3,1.45-4.88,1.45-4.88
		c0.3-7.1,2.7-4.24,2.7-4.24c3.48,1.58,2.13,4.14,2.13,4.14c-2.9-0.2-3.67,4.93-3.67,4.93c0.58,2.95-2.7,5.32-2.7,5.32
		c-3.86-0.2-3.09,0.99-3.09,0.99c7.72,1.18,8.68-5.72,8.68-5.72c-0.72-3.59,2.02-4.83,2.02-4.83c2.32,0.3,2.61-1.18,2.61-1.18
		c1.74-0.3-3.62-5.32-3.62-5.32c-5.49-3.99-2.32-4.88-2.32-4.88c1.89-1.03,3.63-3.25,3.63-3.25c2.31-3.41,2.6,0,2.6,0
		c0.43,3.25,5.21,2.51,5.21,2.51c1.59-0.15,3.03-3.4,3.03-3.4c-0.43-1.92,1.45-1.18,1.45-1.18c0.87,3.84-3.47,5.92-3.47,5.92
		c-2.32,2.81-8.68,0.15-8.68,0.15l-0.14,1.18c6.5,3.85,10.71,0,10.71,0c3.47-0.59,4.77-7.1,4.77-7.1c-1.45-2.51-6.07-1.63-6.07-1.63
		c0.44,0.74-3.04,4.88-3.04,4.88c-3.33-2.81,2.61-7.98,2.61-7.98c0.29,1.34,4.91,0.9,4.91,0.9c3.76-2.22,2.61,0,2.61,0
		c0.72,0.29,1,3.84,1,3.84c1.45,2.66,2.32,1.04,2.32,1.04c-1.16-1.48,0.72-8.13,0.72-8.13l-2.6-1.33l-3.18,2.66
		c-4.78,0.45-2.17-1.18-2.17-1.18c0.72-1.03,6.36-4.14,6.36-4.14c3.33-3.11,4.91,3.84,4.91,3.84c1.02,2.22,3.33,4.88,3.33,4.88
		l1.45-1.47l-2.17-4.89c-3.91-6.65,0.15-5.62,0.15-5.62c1.01-1.48,8.39-2.95,8.39-2.95c3.18-0.89-0.87,2.37-0.87,2.37
		c0,2.81,2.61,2.21,2.61,2.21c0.86-1.77,4.05-2.81,4.05-2.81c6.07-0.59,0.43,4.43,0.43,4.43c-6.36,4.29-11.14-0.74-11.14-0.74
		c-1.88-1.77-2.16-0.15-2.16-0.15c0.86,1.62,7.52,4.73,7.52,4.73c3.18,0.89,7.53-1.18,7.53-1.18c6.65-6.06,0-9.02,0-9.02
		c-5.36-1.04,0.14-1.93,0.14-1.93c5.21-1.92,17.22-1.62,17.22-1.62c1.44,4.73-1.88,3.4-1.88,3.4c-1.88-2.51-7.09-0.89-7.09-0.89
		c-5.06,2.51,0.29,3.25,0.29,3.25c1.45-2.07,2.75-1.78,2.75-1.78c5.35-1.19,1.3,1.92,1.3,1.92c-1.88,2.66,3.47,0.89,3.47,0.89
		c0.15-1.92,2.75-1.63,2.75-1.63c3.18-0.29,1.01,4.88,1.01,4.88c-1.3-1.18-9.11,0.59-9.11,0.59c-3.76-4.14-2.75-0.15-2.75-0.15
		c2.31,3.55,6.36,2.22,6.36,2.22c4.34-3.1,5.21-0.74,5.21-0.74c1.44,1.18,2.31,0.74,2.31,0.74l0.72-4.88
		c1.01-1.62-2.46-4.73-2.46-4.73c0.15-4.58,3.76-2.95,3.76-2.95c3.76-1.62,1.74,7.69,1.74,7.69c-0.73,4.59,2.02,3.69,2.02,3.69
		c0.72-1.18,1.01-8.13,1.01-8.13c-1.15-3.25,2.02-2.66,2.02-2.66l0.16-2.07C120.83,14.2,119.53,12.13,119.53,12.13z M37.51,53.39
		c0,0-3.61,1.18-1.44-3.25c0,0,0.29-2.66,3.33-2.08C39.39,48.06,40.55,52.05,37.51,53.39z M148.02,34.16
		c0.87-0.29,7.09,6.65,7.09,6.65c0.72-1.32-3.76-7.24-3.76-7.24C149.33,30.76,148.02,34.16,148.02,34.16z M202.99,98.33
		c-1,0.59-2.89-1.33-2.89-1.33c1.31-0.15,1.88-1.63,1.88-1.63c0.87-1.93-0.3-4.59-0.3-4.59c-1.29,0.15-2.6-2.52-2.6-2.52
		c1.31-3.11,1.31-4.43,1.31-4.43c0-6.06-7.81-20.7-7.81-20.7c-0.87-5.03-14.18-20.26-14.18-20.26
		c-1.01-2.07-13.45-12.27-13.45-12.27c-3.33,0.44,2.89,5.17,2.89,5.17c1.6,0.29,8.25,7.69,8.25,7.69c1.15,3.55-1.59,2.21-1.59,2.21
		c1.01-4.44-5.35-4.58-5.35-4.58c-1.16-5.77-4.77-5.32-4.77-5.32c-7.67-1.78-5.65,4.88-5.65,4.88c2.75,4.13,5.93,3.69,5.93,3.69
		l0.29-2.22c-1.88-0.3-4.2-3.55-4.2-3.55c2.75-1.48,4.91,0.88,4.91,0.88c3.04,0,2.17,4.73,2.17,4.73l2.02,0.59
		c6.08-0.59,2.02,4.59,2.02,4.59c-4.63,2.95-0.86,4.14-0.86,4.14l4.34-3.55c4.35-6.35,5.5-0.44,5.5-0.44c0,1.33-5.35,4.13-5.35,4.13
		c-3.04,2.67-1.74,4.74-1.74,4.74l4.77-3.69c3.04-3.4,5.06-2.22,5.06-2.22c4.35,3.4,1.02,3.99,1.02,3.99
		c-3.47-0.44-6.08,1.93-6.08,1.93c-3.33,4.59,1.89,7.98,1.89,7.98c1-0.14,1.15-2.07,1.15-2.07c-1.6,0-2.6-3.25-2.6-3.25
		c2.31-4.73,8.82-0.89,8.82-0.89c4.49,1.33,1.3,3.69,1.3,3.69c-0.44,0-5.06,2.95-5.06,2.95c-0.87,3.11,3.47,4.73,3.47,4.73
		c4.05,1.93,3.91,3.41,3.91,3.41c-5.65,0.29-5.65,2.07-5.65,2.07c2.18-0.88,4.49,0.3,4.49,0.3c0.29,0.74,3.04,1.03,3.04,1.03
		l1.15-3.11l-4.77-5.32c-3.33-1.92-1.02-2.81-1.02-2.81c2.18-3.1,3.48-0.59,3.48-0.59c0.72-0.16,6.07,15.67,6.07,15.67
		c0.72,8.27-3.76,2.66-3.76,2.66c-0.58-2.8-2.02-2.21-2.02-2.21c-2.02,0.44,0.29,4.88,0.29,4.88c1.74,0,1.6,2.51,1.6,2.51
		c-1.88,1.48,0,6.36,0,6.36l2.45-1.03c-1.73-4.15,0-4.73,0-4.73c2.31-1.48,3.04,2.81,3.04,2.81c1.3,6.36-7.38,5.92-7.38,5.92
		c-3.61,0.44-0.87,2.07-0.87,2.07c0.87,0.44,8.97-0.89,8.97-0.89c1.88,3.4,2.9,2.22,2.9,2.22
		C204.44,99.96,202.99,98.33,202.99,98.33z M150.63,23.81c0,0,1.74-1.18-5.21-4.14c0,0-12.15-4.44-16.92-5.17
		c0,0-3.76,1.18,2.02,2.81c0,0,7.23,1.19,8.96,3.25h-12.15c0,0-3.18,2.81,1.45,3.85c0,0,7.23,0.14,8.39,5.32c0,0,2.17,3.4,3.33-1.77
		c0,0,2.31-5.91,3.18-6.51c0,0,4.63-0.29,1.45,5.47l-2.75,4.59c0,0,0.58,2.66,2.17,1.63c0,0,2.75-5.18,3.18-7.24
		C147.74,25.89,148.75,24.11,150.63,23.81z M137.32,26.63c-4.2-2.37-2.02-2.96-2.02-2.96h3.04
		C138.91,24.85,137.32,26.63,137.32,26.63z M161.18,30.17c1.17-5.32-7.22-5.02-7.22-5.02c-5.21,2.22-2.32,6.21-2.32,6.21
		C159.03,36.08,161.18,30.17,161.18,30.17z M157.71,30.02c0,0-4.77,1.92-5.19-1.18c0,0,1.88-2.22,4.33-1.33
		C156.85,27.51,161.33,28.54,157.71,30.02z"/>
</g>
</svg>
