<?xml version="1.0" encoding="utf-8"?>
<!-- Generator: Adobe Illustrator 24.1.1, SVG Export Plug-In . SVG Version: 6.00 Build 0)  -->
<svg version="1.1" id="Layer_1" xmlns="http://www.w3.org/2000/svg" xmlns:xlink="http://www.w3.org/1999/xlink" x="0px" y="0px"
	 viewBox="0 0 130.07 26.65" style="enable-background:new 0 0 130.07 26.65;" xml:space="preserve">
<style type="text/css">
	.st0{fill:#39AAE1;}
</style>
<g>
	<path id="XMLID_7676_" class="st0" d="M119.52,23.27c0,0,0.38-0.15,0.97-0.67c0.58-0.52,0.68-1.2,1.2-1.86
		c0.58-0.73,1.82-1.88,1.82-1.88s-0.38,1.58-0.74,2.32c-0.52,1.07-1.1,1.4-1.1,1.4s0.29,0.2,0.68,0.03c0.39-0.17,0.8-0.39,1.38-0.32
		c0.58,0.07,1.31,0.08,2.05-0.34c0.73-0.43,1.39-0.86,1.39-0.86s-0.46,1.41-2.29,2.19c-1.18,0.51-2.56,0.49-2.99,0.26
		c-0.43-0.24-0.95-0.35-1.32-0.24C120.19,23.4,119.52,23.27,119.52,23.27"/>
	<path id="XMLID_7675_" class="st0" d="M125.44,15.76c0,0,0.01,1.36,0.1,1.84c0.09,0.47-0.02,1.06-0.21,1.51
		c-0.19,0.46-0.52,1.1-0.29,1.23c0.24,0.13,0.32-0.39,0.84-0.76c0.52-0.37,1.46-0.85,1.98-1.16c0.83-0.5,1.46-1.43,1.46-1.43
		s-0.36,2.12-2.15,3.35c-1.18,0.81-3.52,1.02-3.52,1.02s0.25-0.22,0.38-0.78c0.13-0.56,0.19-1.75,0.42-2.5
		C124.69,17.32,125.44,15.76,125.44,15.76"/>
	<path id="XMLID_7674_" class="st0" d="M126.4,12.68c0,0,0.67,1.7,0.76,2.17c0.08,0.48-0.05,1.89-0.05,1.89s0.55-0.5,1.1-1.36
		c0.42-0.67,1.03-0.91,1.38-1.45c0.34-0.54,0.48-0.76,0.48-0.76s-0.34,1.5-0.72,2.38c-0.63,1.46-3.13,3.01-3.13,3.01
		s0.13-0.43,0.2-1.27c0.06-0.84-0.15-1.82-0.21-2.45C126.15,14.24,126.4,12.68,126.4,12.68"/>
	<path id="XMLID_7673_" class="st0" d="M126.36,9.21c0,0,0.2,0.24,0.61,0.88c0.41,0.65,0.95,1.34,0.97,1.73
		c0.02,0.39,0.22,0.87,0.35,0.84c0.13-0.02,0.13-0.46,0.32-1.14c0.19-0.67,0.77-1.33,0.87-1.82c0.08-0.4,0.23-0.97,0.23-0.97
		s0.31,1.71-0.06,3.09c-0.37,1.38-1.19,2.05-1.32,2.23c-0.13,0.17-0.37,0.41-0.37,0.41s0.13,0.13-0.26-0.74
		c-0.39-0.87-0.66-1.4-1-2.04C126.44,11.21,126.36,9.21,126.36,9.21"/>
	<path id="XMLID_7672_" class="st0" d="M125.49,6.35c0,0,0.94,0.55,1.37,1.01c0.48,0.53,1.03,1.5,1.2,1.46
		c0.17-0.04-0.01-0.87,0.03-1.19c0.05-0.32,0.17-1.78,0.1-2.17c-0.06-0.39-0.18-0.94-0.18-0.94s1.08,1.57,1.05,2.69
		c-0.02,1.12,0.03,1.37-0.47,2.25c-0.27,0.46-0.43,1.1-0.43,1.1s-0.16-0.33-0.52-0.78c-0.37-0.46-1.16-1.23-1.44-1.93
		C125.92,7.17,125.49,6.35,125.49,6.35"/>
	<path id="XMLID_7671_" class="st0" d="M124.07,3.61c0,0,0.27,0.25,0.7,0.55c0.43,0.3,0.98,0.51,1.28,0.81
		c0.3,0.3,0.68,0.65,0.83,0.57c0.15-0.09-0.04-0.36-0.28-1.01c-0.24-0.65-0.24-1.29-0.43-1.57c-0.19-0.28-0.37-0.83-0.37-0.83
		s1.19,0.92,1.4,1.68c0.22,0.75,0.19,3.14,0.19,3.14s-0.21-0.3-0.62-0.6c-0.41-0.3-1.44-1.05-1.79-1.33
		C124.33,4.51,124.07,3.61,124.07,3.61"/>
	<path id="XMLID_7670_" class="st0" d="M123.1,1.07c0,0,0.95,0.26,1.56,0.78c0.6,0.52,1.1,1.95,1.1,1.95s-1-0.5-1.41-0.89
		C123.95,2.51,123.1,1.07,123.1,1.07"/>
	<path id="XMLID_7669_" class="st0" d="M104.72,24.05c0,0,1.09,0.57,1.94,0.5c0.85-0.06,1.63-0.34,3.02-0.7
		c1.4-0.36,2.46-0.44,3.09-0.33c0.62,0.11,1.72,0.25,1.72,0.25s1.42-0.22,2.53-0.28c0.56-0.03,1.31,0.13,2.14,0.39
		c0.81,0.25,2.27,0.72,3.09,0.73c1.21,0.02,2.11-0.46,2.11-0.46s-0.12,0.88-3.01,1.16c-1.72,0.16-2.42,0.03-3.18-0.45
		c-0.75-0.49-1.58-0.89-1.96-0.91c-0.38-0.02-0.94,0.03-0.94,0.03s1.03,0.37,1.55,0.78c0.51,0.41,1.85,1.5,1.85,1.5l-0.33,0.38
		c0,0-0.52-0.75-1.36-1.36c-0.85-0.61-2.03-1.22-2.47-1.22c-0.44,0-1.88,0.66-2.8,1.52c-0.89,0.83-0.99,1.03-0.99,1.03l-0.34-0.34
		c0,0,0.68-0.67,1.58-1.27c0.91-0.6,1.86-1.07,1.86-1.07s-0.03-0.09-0.58-0.05c-0.55,0.05-0.99,0.11-1.92,0.69
		c-0.94,0.58-1.3,0.72-2.12,0.81c-0.79,0.1-2.38-0.06-3.34-0.47C104.92,24.52,104.72,24.05,104.72,24.05"/>
	<path id="XMLID_7668_" class="st0" d="M101.82,20.95c0,0,0.87,0.69,1.28,0.92c0.91,0.52,1.71,0.28,2.29,0.36
		c0.58,0.08,1.1,0.22,1.27,0.3c0.18,0.08,0.69,0.13,0.74,0.03c0.05-0.11-0.47-0.33-0.86-1.02c-0.57-1.01-0.91-2.68-0.91-2.68
		s0.86,0.61,1.64,1.64c0.78,1.03,0.68,1.54,1.22,2c0.58,0.48,1.11,0.75,1.11,0.75s-0.72-0.07-1.23-0.03
		c-0.52,0.04-1.39,0.4-2.18,0.39c-0.76-0.01-2.22-0.08-3.45-1.44C101.93,21.28,101.82,20.95,101.82,20.95"/>
	<path id="XMLID_7667_" class="st0" d="M99.63,17.06c0,0,0.52,0.69,1.27,1.3c0.75,0.61,1.89,0.97,2.29,1.41
		c0.39,0.44,0.56,0.8,0.78,0.69c0.22-0.11-0.13-0.49-0.28-1.07c-0.15-0.58-0.27-2.13-0.15-2.73c0.07-0.31,0.04-0.78,0.04-0.78
		s0.35,0.59,0.75,1.5c0.37,0.85,0.35,2.3,0.51,2.95c0.17,0.68,0.53,1.12,0.53,1.12s-1.16-0.06-1.74-0.28
		c-0.58-0.22-2.21-0.81-2.82-1.82C100.21,18.36,99.63,17.06,99.63,17.06"/>
	<path id="XMLID_7666_" class="st0" d="M98.92,13.2c0,0,0.24,0.6,0.61,0.96c0.38,0.36,0.61,0.53,1.05,1.05
		c0.31,0.36,1.04,1.76,1.27,1.72c0.19-0.03-0.09-0.75-0.02-1.46c0.13-1.2,0.88-2.63,0.88-2.63s0.17,1.48,0.13,2.36
		c-0.04,0.88-0.34,1.86-0.23,2.36c0.11,0.5,0.17,1.13,0.17,1.13s-1.14-0.76-1.96-1.5c-0.81-0.74-1.55-2.35-1.69-2.85
		C98.98,13.84,98.92,13.2,98.92,13.2"/>
	<path id="XMLID_7665_" class="st0" d="M99.22,8.81c0,0-0.15,2.17,0.13,3.16c0.43,1.59,1.66,2.62,1.66,2.62s0.11-0.55,0.38-1.11
		c0.27-0.56,0.69-1.12,0.86-1.58c0.33-0.9,0.41-2.49,0.41-2.49s-0.3,0.45-0.56,0.81c-0.27,0.36-0.59,0.8-0.85,1.39
		c-0.25,0.6-0.28,1.15-0.56,1.18c-0.4,0.03-0.06-0.53-0.39-1.3c-0.33-0.77-0.8-1.55-0.85-1.92C99.4,9.19,99.22,8.81,99.22,8.81"/>
	<path id="XMLID_7664_" class="st0" d="M100.94,4.61c0,0-0.86,1.18-0.99,2.25c-0.12,1.08-0.04,1.95,0.38,2.66
		c0.28,0.49,0.37,1.21,0.37,1.21s0.14-0.37,0.5-0.77c0.36-0.39,0.98-0.95,1.42-1.7c0.44-0.75,0.83-1.74,0.83-1.74s-0.7,0.4-1.1,0.76
		c-0.99,0.9-1.47,1.75-1.47,1.75s-0.28-0.25-0.19-0.61c0.1-0.36,0.14-0.91,0.11-1.32c-0.03-0.4-0.16-0.64-0.09-1.14
		C100.81,5.46,100.94,4.61,100.94,4.61"/>
	<path id="XMLID_7663_" class="st0" d="M103.28,2.18c0,0-1.16,0.7-1.47,1.58c-0.24,0.67-0.14,1.38-0.25,2.08
		c-0.11,0.7,0.03,1.19,0.03,1.19s0.09-0.18,0.5-0.61c0.41-0.44,1.05-0.7,1.5-1.02c0.97-0.67,1.41-1.77,1.41-1.77
		s-0.56,0.52-0.85,0.67c-0.28,0.16-0.81,0.41-1.2,0.69c-0.29,0.2-0.52,0.79-0.52,0.79s-0.36-0.34-0.24-0.72
		c0.13-0.37,0.31-0.66,0.39-1.03c0.08-0.38,0.19-0.93,0.35-1.21C103.09,2.58,103.28,2.18,103.28,2.18"/>
	<path id="XMLID_7662_" class="st0" d="M104.13,2.13c0.47-0.45,1.78-0.94,1.78-0.94s-0.56,0.94-1.17,1.57
		c-0.71,0.73-1.6,1.16-1.6,1.16S103.31,2.91,104.13,2.13"/>
	<path id="XMLID_7661_" class="st0" d="M110.27,3.67c1.21,0,3.65,1.31,3.65,3.06c0,1.09-0.85,1.83-0.85,1.83s0.04,0.61-0.05,0.79
		c-0.16,0.35-0.32,0.25-0.53,0.57c-0.21,0.32-0.3,0.81-1.18,0.81c-0.88,0-0.87-0.28-1.29-0.28c-0.42,0-0.7,0.4-0.7,0.4v3.16
		c0,0,0.09,0.4,0.88,0.83c0.79,0.42,1.41,0.69,1.66,0.69c0.24,0,0.24-0.28,0.54-0.28c0.3,0,1.52,0,1.52,0.57
		c0,0.56-0.6,0.95-2.79,0.95c-2.18,0-2.86-0.17-3.1-0.17c-0.25,0-0.28,0.05-0.28,0.39c0,0.34-0.02,0.81-0.02,0.81
		s0.37,0.58,0.81,0.81c0.44,0.23,0.69,0.35,1.18,0.35c0.49,0,1.23-0.16,1.83-0.42c0.6-0.26,1.18-0.42,1.87-0.42
		c0.69,0,1.9-0.16,1.9-0.86c0-0.71-0.26-0.95-0.26-1.5c0-0.55,0.09-1.03-0.18-1.29s-1.43-1.11-1.43-1.58c0-0.48,0.42-0.69,0.48-0.95
		c0.05-0.26,0.02-0.42,0.19-0.48c0.18-0.05,0.32-0.12,0.32-0.12l0.09-0.44c0,0,0.23-0.11,0.35-0.21c0.12-0.1,0.23-0.18,0.23-0.18
		s-0.1-0.34,0.09-0.55c0.19-0.21,0.46-0.16,0.65-0.16c0.19,0,0.79-0.07,0.79-0.07s0.19-0.35,0.41-0.51c0.35-0.27,1.32-0.4,1.57-0.6
		c0.25-0.19,0.51-0.67,1.17-0.67c2.68,0,4.48,2.42,4.48,3.72c0,2.26-1.46,4.99-3.51,4.99c-1.61,0-1.5,0.48-1.5,1
		c0,1.24,1.2,1.46,1.2,1.46s-2.52,1.9-5.45,1.9c-2.78,0-5.55-1.03-7.54-3.22c-1.37-1.51-2.42-3.51-2.42-6.26c0-1.08,0-1.26,0-1.26
		s0.73-0.57,1.17-0.79c0.44-0.22,1.43-0.8,1.43-1.27c0-0.47-0.18-0.65-0.18-1.65c0-0.46,0.11-1.3,0.53-1.86
		C108.49,4.04,109.35,3.67,110.27,3.67"/>
	<path id="XMLID_7647_" class="st0" d="M114.6,0.78c-5.88,0-10.65,4.77-10.65,10.65s4.77,10.65,10.65,10.65
		c5.88,0,10.65-4.77,10.65-10.65S120.48,0.78,114.6,0.78 M122.55,4.82c0.55,0.66,0.8,1.12,0.8,1.12s-0.37,0.38-0.79,0.58
		c-0.43,0.2-1.23,0.5-1.23,0.5s-0.29-0.91-0.53-1.39c-0.24-0.48-0.48-1.05-0.48-1.05s0.23-0.16,0.58-0.4
		c0.34-0.24,0.58-0.46,0.58-0.46S122.08,4.27,122.55,4.82 M119.03,2.08c0,0,0.72,0.32,1.21,0.68c0.48,0.36,1.04,0.8,1.04,0.8
		s-0.09,0.15-0.36,0.35c-0.27,0.21-0.67,0.38-0.67,0.38s-0.36-0.5-0.66-0.88c-0.3-0.38-0.86-1.03-0.86-1.03s0.13-0.12,0.19-0.2
		C118.99,2.09,119.03,2.08,119.03,2.08 M117.64,4.3c-0.11-0.5-0.39-0.95-0.39-0.95s0.44-0.22,0.73-0.4
		c0.29-0.19,0.53-0.38,0.53-0.38s0.51,0.51,0.88,0.96c0.37,0.46,0.63,0.9,0.63,0.9s-0.47,0.21-1.01,0.46
		c-0.54,0.25-1.21,0.35-1.21,0.35S117.75,4.8,117.64,4.3 M117.91,7.94c0,0-0.25,0.07-1.08,0.1c-0.83,0.03-1.56-0.01-1.56-0.01V5.67
		c0,0,0.64,0.04,1.11,0.04c0.47,0,1.27-0.14,1.27-0.14s0.04,0.37,0.14,0.96C117.9,7.13,117.91,7.94,117.91,7.94 M118.17,1.71
		c0.29,0.08,0.64,0.29,0.64,0.29l-0.31,0.24c0,0-0.22-0.2-0.42-0.39c-0.22-0.22-0.67-0.36-0.67-0.36S117.88,1.64,118.17,1.71
		 M117.33,1.63c0.54,0.3,0.96,0.77,0.96,0.77s-0.2,0.13-0.48,0.34c-0.28,0.2-0.68,0.29-0.68,0.29s-0.25-0.59-0.42-0.93
		c-0.17-0.31-0.72-0.9-0.72-0.9S116.79,1.34,117.33,1.63 M115.22,1.14c0,0,0.58-0.15,1.11,0.85c0.28,0.52,0.53,1.12,0.53,1.12
		s-0.41,0.12-0.83,0.17c-0.42,0.04-0.82-0.02-0.82-0.02V1.14z M115.22,3.56c0,0,0.4,0.03,0.86,0c0.46-0.03,0.91-0.13,0.91-0.13
		s0.16,0.17,0.31,0.84c0.13,0.61,0.21,1.04,0.21,1.04s-0.49,0.13-1.18,0.18c-0.69,0.04-1.1-0.04-1.1-0.04V3.56z M114.9,1.14
		l0.04,2.15c0,0-0.46,0.04-0.97-0.1c-0.5-0.14-0.74-0.29-0.74-0.29s0.27-0.54,0.62-1.01C114.62,0.84,114.9,1.14,114.9,1.14
		 M114.25,1.09c0,0-0.49,0.46-0.71,0.89c-0.22,0.42-0.52,0.83-0.52,0.83s-0.38-0.16-0.64-0.36c-0.26-0.19-0.4-0.33-0.4-0.33
		s0.42-0.48,1.18-0.75C113.91,1.1,114.25,1.09,114.25,1.09 M112.25,1.34c0.4-0.1,0.71-0.12,0.71-0.12s-0.44,0.22-0.68,0.41
		c-0.25,0.19-0.47,0.33-0.47,0.33s-0.12-0.08-0.18-0.18c-0.06-0.1-0.08-0.22-0.08-0.22S111.85,1.43,112.25,1.34 M114.62,21.75
		c-5.23,0-10.36-4.17-10.36-10.3c0-7.69,6.99-9.8,6.99-9.8l0.42,0.4c0,0-0.37,0.24-0.67,0.56c-0.3,0.31-0.48,0.59-0.48,0.59
		l0.18,0.16c0,0,0.22-0.32,0.46-0.56c0.25-0.25,0.6-0.53,0.6-0.53s0.36,0.37,0.59,0.51c0.23,0.14,0.56,0.29,0.56,0.29
		s-0.03,0.18-0.12,0.4c-0.09,0.22-0.19,0.51-0.19,0.51l0.22,0.12c0,0,0.15-0.42,0.23-0.59c0.08-0.16,0.15-0.33,0.15-0.33
		s0.52,0.22,0.97,0.31c0.45,0.1,0.78,0.08,0.78,0.08V5.4h-0.67v0.31h0.69v2.3h-0.58v0.26h0.57v0.85h0.28V8.3
		c0,0,0.37,0.01,1.33-0.03c0.96-0.04,1.57-0.14,1.57-0.14s-0.03-0.88-0.11-1.52c-0.08-0.64-0.22-1.14-0.22-1.14s0.55-0.07,1.15-0.31
		c0.61-0.25,1.12-0.48,1.12-0.48s0.32,0.46,0.56,1.12c0.24,0.66,0.48,1.32,0.48,1.32l-0.41,0.18l0.07,0.21l0.47-0.14l0.14,0.28
		l0.18-0.08l-0.13-0.29c0,0,0.56-0.17,1.12-0.47c0.56-0.3,0.97-0.59,0.97-0.59s1.41,2.14,1.41,5.19
		C124.94,16.11,121.32,21.75,114.62,21.75"/>
	<path id="XMLID_7646_" class="st0" d="M11.96,25.76v-2.69L11.89,23c-1.31,2.16-2.9,3.29-5.87,3.29C3.29,26.29,0,24.98,0,20.56V7.25
		h3.11v12.28c0,3.04,1.56,4.07,3.57,4.07c3.93,0,5.1-3.47,5.1-6.16V7.25h3.11v18.51H11.96"/>
	<path id="XMLID_7645_" class="st0" d="M34.64,25.76h-3.11V14.37c0-3.22-0.92-4.85-3.96-4.85c-1.77,0-4.88,1.13-4.88,6.16v10.08
		h-3.11V7.25h2.94v2.62h0.07c0.67-0.99,2.41-3.15,5.59-3.15c2.86,0,6.47,1.17,6.47,6.44V25.76"/>
	<path id="XMLID_7642_" class="st0" d="M39.31,0.35h3.11v3.54h-3.11V0.35z M42.42,25.76h-3.11V7.25h3.11V25.76z"/>
	<path id="XMLID_7641_" class="st0" d="M58.67,13.48c-0.39-2.48-1.77-3.96-4.39-3.96c-3.86,0-5.1,3.68-5.1,6.97
		c0,3.18,0.78,7.11,5.06,7.11c2.09,0,3.89-1.56,4.43-4.39h3.01c-0.32,2.94-2.12,7.07-7.54,7.07c-5.2,0-8.28-3.93-8.28-9.27
		c0-5.73,2.76-10.3,8.88-10.3c4.85,0,6.69,3.54,6.94,6.76H58.67"/>
	<path id="XMLID_7638_" class="st0" d="M80.5,19.96c-0.11,0.88-0.96,3.5-3.29,5.06c-0.85,0.57-2.05,1.27-5.02,1.27
		c-5.2,0-8.28-3.93-8.28-9.27c0-5.73,2.76-10.3,8.88-10.3c5.34,0,7.96,4.25,7.96,10.79H67.23c0,3.86,1.8,6.08,5.38,6.08
		c2.94,0,4.67-2.27,4.78-3.64H80.5z M77.53,15.04c-0.18-2.86-1.38-5.52-5.17-5.52c-2.87,0-5.13,2.65-5.13,5.52H77.53"/>
	<path id="XMLID_7637_" class="st0" d="M88.32,9.84v15.92H85.2V9.84h-2.55V7.25h2.55V4.07c0-2.8,1.77-4.07,4.81-4.07
		c0.46,0,0.92,0.03,1.42,0.07v2.8c-0.39-0.04-0.89-0.07-1.27-0.07c-1.34,0-1.84,0.67-1.84,2.16v2.3h3.11v2.58H88.32"/>
</g>
</svg>
